<svg version="1" xmlns="http://www.w3.org/2000/svg" width="960" height="960" viewBox="0 0 720.000000 720.000000"><path d="M0 360v360h720V0H0v360zM237 74c0 1.7-.7 2-4.9 2-10.4 0-19.2 5.5-23.8 14.8l-2.8 5.7-.3 202.7-.3 202.8h82l4-12.7c2.2-7.1 9.8-31.9 17-55.3 44-143.5 68.3-222.8 69-225l.8-2.5h89.6l1.8 5.5c1 3 11.2 36.3 22.8 74 11.5 37.7 31.6 103.1 44.6 145.5 13 42.3 31.1 101.3 40.2 131 9.1 29.7 17.7 56.1 19.1 58.7 6 11.3 18.1 19.3 31 20.4 5.1.5 7.2 1.1 7.2 2 0 1.2-12.8 1.4-76.5 1.4-62 0-76.5-.2-76.5-1.3 0-.8 2.4-1.7 6.5-2.4 7.6-1.3 12.4-4.4 14.9-9.6 3.3-7.2 2.4-11.6-11.7-57.8-7.4-23.9-14.7-47.8-16.3-53.2l-2.9-9.7-48.9.2-48.9.3-16.3 53c-17.6 57.1-18.2 60-14.4 67.5 2.7 5.3 6.9 8 14.5 9.3 4.1.7 6.5 1.6 6.5 2.4 0 1.1-14.5 1.3-76.5 1.3-63.7 0-76.5-.2-76.5-1.4 0-.9 2.1-1.5 7.3-2 12.2-1.1 23.6-8.1 30.3-18.8 1.8-2.8 22.6-68.4 35-110.1.5-1.6-4.6-1.7-97.6-1.7-92.9 0-98.1-.1-97.8-1.8.3-1.3 1.7-1.8 7-2.3 11.8-1 21.5-9.2 23.7-20.1.8-3.8 1.1-61.8.9-198.3l-.3-193-3.1-5.5c-5.2-9.3-13.2-14-23.6-14-4.1 0-4.8-.3-4.8-2 0-2 .7-2 74.5-2s74.5 0 74.5 2z"/><path d="M378.3 230.2c-2.9 9.7-33.9 111.3-49.5 162.3-3.9 12.6-7.8 25.7-8.8 29-1 3.3-6.6 21.7-12.5 41-5.9 19.2-11 36-11.3 37.3l-.4 2.2h69.8l8.2-26.8c4.5-14.7 15.8-51.4 25.2-81.6l17-54.8-9.4-32.7c-17.7-61.1-24.8-85.6-25-85.9-.2-.1-1.6 4.4-3.3 10zM399.7 426.8c-12.5 40.5-22.7 74-22.7 74.5 0 .4 20.5.7 45.5.7 28.8 0 45.5-.4 45.5-1 0-.5-4.3-14.8-9.5-31.7-5.2-17-15.3-49.9-22.4-73.2-7.2-23.3-13.2-42.6-13.4-42.7-.2-.2-10.6 32.8-23 73.4zM292.7 511.7c-.3.5-7.5 23.8-16.1 52-9.4 30.8-15.6 52.9-15.6 55.3 0 5.1 2.1 8.8 6.5 11.9 6.3 4.3 12 5.5 26.5 5.5 11.6 0 14.3-.4 19.3-2.3 7.3-2.9 11.2-6.2 14.1-12 2.1-4.2 34.6-107.5 34.6-110 0-1.3-68.6-1.6-69.3-.4z"/></svg>