<?xml version="1.0" encoding="utf-8"?>
<!-- Generator: Adobe Illustrator 24.2.1, SVG Export Plug-In . SVG Version: 6.00 Build 0)  -->
<svg version="1.1" id="Layer_1" xmlns="http://www.w3.org/2000/svg" xmlns:xlink="http://www.w3.org/1999/xlink" x="0px" y="0px"
	 viewBox="0 0 499.1 546.2" style="enable-background:new 0 0 499.1 546.2;" xml:space="preserve">
<style type="text/css">
	.st0{fill:#006D7A;}
</style>
<g>
	<path class="st0" d="M193.2,417.5c-0.9,2.9-0.6,6.3,1.5,8.5c4.8,5.1,15.2,4.9,15.2,4.9c15.2,0.4,20.5-4.1,23.1-14.2l17.8-57.4
		h-39.8L193.2,417.5z"/>
	<polygon class="st0" points="258.7,354.3 311.2,354.3 285,268.8 	"/>
	<polygon class="st0" points="281.1,260.9 261.6,193.2 212.4,354.3 252.3,354.3 	"/>
	<path class="st0" d="M0,0v546.2h499.1V0H0z M405.5,435.9h-19.8v0h-45.1l0,0h-22.4v-2.2h2.2c8.4,0,13.1-6.8,10.5-15.2l-18.2-59.2
		h-55.6L239,418.5c-2.6,8.4,2.1,15.2,10.5,15.2h2.2v2.2h-67.9h-19.3v-2.2h3.5c8.4,0,17.3-6.8,19.9-15.2l18.2-59.2H94.2v-2.2H97
		c8.4,0,15.2-6.8,15.2-15.2V126.2c0-8.4-6.8-15.2-15.2-15.2h-2.8v-2.2h85v2.2h-2.8c-8.4,0-15.2,6.8-15.2,15.2l-0.2,228.1h46.6
		l51.9-168.9h51.2l71.6,233.1c2.6,8.4,11.5,15.2,19.9,15.2h3.5L405.5,435.9L405.5,435.9z"/>
</g>
</svg>
